<svg version="1.1" id="Layer_1" xmlns="http://www.w3.org/2000/svg" xmlns:xlink="http://www.w3.org/1999/xlink" x="0px" y="0px"
	 width="100%" viewBox="0 0 1024 398" enable-background="new 0 0 1024 398" xml:space="preserve">
<path fill="#FFFFFF" opacity="1.000000" stroke="none" 
	d="
M948.000000,178.998749 
	C947.666626,162.919540 947.455444,147.335251 946.966492,131.759674 
	C946.448486,115.255669 945.707214,98.758110 944.961487,82.262344 
	C944.830872,79.372284 944.197144,76.504959 943.740479,73.230797 
	C951.245789,72.459908 958.339172,71.317230 965.462158,71.085861 
	C980.335327,70.602745 990.678711,77.678223 997.022217,91.024261 
	C1004.117249,105.951317 1003.486816,120.319687 993.965515,133.954681 
	C988.149902,142.282806 980.274109,147.172806 969.757507,147.010406 
	C965.635498,146.946747 961.511658,147.000000 956.539612,147.000000 
	C957.043152,155.451767 957.947998,163.477310 957.915649,171.499069 
	C957.833374,191.912186 957.487366,212.327744 956.948425,232.734421 
	C956.534546,248.407227 955.186584,264.067566 955.171997,279.734314 
	C955.162598,289.840942 958.599915,299.341705 964.997986,307.425903 
	C970.438354,314.299957 978.087402,316.592224 986.730469,317.115723 
	C986.730469,318.899780 986.730469,320.667725 986.730469,322.668488 
	C977.862915,323.909088 968.726379,323.655243 962.408264,316.525452 
	C957.028503,310.454620 953.418030,302.815918 949.591858,296.767181 
	C946.737854,301.934784 944.738525,308.228790 940.602051,312.407135 
	C934.656555,318.412811 926.119263,320.628021 917.847168,321.845886 
	C909.912170,323.014069 900.350586,315.743317 896.967224,307.404724 
	C891.262695,293.345123 891.815552,278.947937 894.905640,264.590546 
	C896.614075,256.652557 898.949524,248.715225 902.136780,241.262741 
	C906.420105,231.247589 914.242798,224.621521 925.520630,224.236023 
	C929.739563,224.091827 934.132324,226.337265 938.282104,227.921967 
	C940.596375,228.805740 942.574158,230.570465 944.773743,231.983215 
	C945.315796,231.082550 945.905823,230.550461 945.931824,229.992142 
	C946.331177,221.412292 946.655518,212.828964 947.000427,204.246582 
	C947.331848,195.996811 947.666687,187.747177 948.000000,178.998749 
M915.851440,312.999969 
	C931.467468,314.522034 937.478271,305.558746 940.798279,295.855194 
	C946.716309,278.558014 946.505005,260.425842 945.851929,243.024155 
	C942.072876,240.428207 938.716797,237.923798 935.156250,235.755112 
	C933.174255,234.547943 930.924744,233.434280 928.669983,233.080231 
	C918.653198,231.507309 912.864319,237.578354 909.302673,245.525360 
	C902.537231,260.620636 899.359253,276.566193 899.947144,293.232269 
	C900.315430,303.672058 904.828735,309.947968 915.851440,312.999969 
M959.423096,80.000084 
	C957.283569,80.473732 955.144043,80.947380 952.564270,81.518501 
	C953.059448,87.194656 953.754028,92.576767 953.954956,97.977242 
	C954.428528,110.704201 954.660095,123.440102 955.014343,136.171692 
	C955.040100,137.100296 955.266052,138.023300 955.469604,139.441086 
	C961.113708,138.944977 966.605896,139.000839 971.848389,137.884064 
	C981.402405,135.848831 988.802490,130.951218 992.107300,120.962723 
	C995.087219,111.956169 993.177307,103.559036 989.966248,95.216766 
	C985.968506,84.831047 970.463135,76.952690 959.423096,80.000084 
z"/>
<path fill="#FFFFFF" opacity="1.000000" stroke="none" 
	d="
M435.000000,89.093033 
	C434.666290,76.853752 434.079926,65.102364 434.072144,53.350586 
	C434.064819,42.274021 434.425690,31.182461 435.094604,20.125937 
	C435.473633,13.861436 437.287567,12.780596 443.177704,13.256166 
	C442.632050,33.372528 442.086914,53.470867 441.529694,74.013115 
	C448.823334,72.419884 455.280579,70.583588 461.865875,69.662231 
	C474.381042,67.911209 487.310516,67.519936 496.555328,77.612846 
	C501.408112,82.910805 505.092682,90.456299 506.452576,97.534798 
	C509.423309,112.998146 509.974426,128.764160 504.470917,144.087433 
	C499.293182,158.503738 488.931122,167.264557 474.400177,170.859909 
	C467.196960,172.642197 459.651581,173.093216 452.236847,173.933044 
	C450.396576,174.141479 448.462250,173.519958 445.476166,173.140961 
	C444.239624,197.486343 442.999298,221.905716 441.742218,246.654785 
	C454.345032,245.943253 466.525726,245.255539 478.687073,244.568924 
	C479.224762,252.071396 479.091034,252.232132 470.895020,252.990936 
	C461.755859,253.837067 452.611145,254.623077 443.392578,255.442047 
	C443.920319,262.698944 444.226501,270.148499 445.052917,277.539886 
	C446.405304,289.635529 448.084991,301.709076 457.400543,310.878937 
	C461.501770,314.916016 466.265839,313.137817 470.717316,311.907806 
	C474.861206,310.762817 477.968567,308.188232 479.074280,303.627167 
	C479.393585,302.309937 480.703217,300.148376 481.398560,300.209106 
	C483.522919,300.394653 485.753296,301.197815 487.527740,302.382019 
	C488.024994,302.713806 487.474243,305.416229 486.750763,306.647156 
	C482.088470,314.579529 476.399536,321.618439 466.288666,321.908569 
	C453.750671,322.268372 446.826660,316.671082 442.351349,302.846283 
	C438.707642,291.590576 437.983521,279.386200 436.017059,267.593750 
	C435.564514,264.879883 435.442871,262.109375 434.957306,259.402924 
	C434.436340,256.499146 432.600037,254.977478 429.566895,254.994995 
	C425.581573,255.018005 421.596039,255.000641 417.650787,255.000641 
	C416.238464,247.733475 417.158966,247.271286 434.000000,246.918594 
	C434.000000,243.699387 434.012604,240.448563 433.997955,237.197876 
	C433.897797,214.975327 435.250214,192.861862 438.470581,170.852051 
	C438.878693,168.062668 437.151245,165.028061 437.063751,162.087738 
	C436.595337,146.340591 436.384552,130.585968 435.979218,114.836670 
	C435.762482,106.415199 435.333282,97.999214 435.000000,89.093033 
M449.516815,80.999573 
	C448.277832,81.333527 447.054901,81.859413 445.796783,81.964737 
	C442.296844,82.257706 441.714996,84.372581 441.984009,87.346626 
	C443.030121,98.912430 444.286987,110.469360 444.922089,122.059372 
	C445.600861,134.445847 445.706940,146.865021 445.981598,159.271713 
	C446.103638,164.784103 447.315735,166.392380 453.002319,165.895721 
	C459.264160,165.348816 465.618317,164.572403 471.646698,162.879227 
	C490.057220,157.708344 498.510773,147.268066 499.852478,129.032761 
	C500.679840,117.787865 500.555481,106.402924 497.005768,95.405907 
	C494.454498,87.502144 490.581909,80.746086 481.686310,78.981339 
	C471.120117,76.885178 460.616913,77.337708 449.516815,80.999573 
z"/>
<path fill="#FFFFFF" opacity="1.000000" stroke="none" 
	d="
M670.633789,315.153748 
	C666.714661,304.321533 668.014282,293.617615 668.822998,282.795044 
	C669.553589,273.019196 669.550415,263.103973 668.819458,253.328796 
	C668.173096,244.685547 660.065308,240.255020 650.837891,243.133377 
	C641.356384,246.091003 632.925171,251.394623 627.982483,260.062439 
	C625.985840,263.563934 627.359985,269.008301 627.294128,273.569916 
	C627.283081,274.337830 627.963806,275.112000 627.966187,275.884399 
	C628.009583,289.775574 627.997803,303.666870 627.997803,317.891846 
	C624.358887,318.776703 621.577332,317.865540 620.899963,312.727631 
	C619.801331,304.395142 618.168396,296.133301 617.057800,287.802063 
	C616.408447,282.931000 616.050598,277.979553 616.113342,273.071289 
	C616.148621,270.304260 618.230347,267.374481 617.744568,264.832489 
	C616.949463,260.671783 615.499573,256.290924 613.110657,252.845566 
	C606.276794,242.989670 591.145691,244.881104 584.757263,255.536240 
	C579.110596,264.954346 577.574463,275.256897 577.123596,285.737213 
	C576.595215,298.021332 577.000000,310.345642 577.000000,322.620148 
	C571.246277,323.150726 569.901184,321.970245 569.055420,314.415375 
	C567.547119,300.942993 566.267822,287.443634 565.024292,273.943451 
	C564.227234,265.289734 564.798645,256.318024 562.634644,248.043808 
	C560.953247,241.614975 558.809570,235.458054 558.997192,228.736282 
	C559.019409,227.941559 559.000244,227.145660 559.000244,226.180420 
	C561.335938,226.180420 563.283630,226.180420 565.934448,226.180420 
	C568.498901,237.605103 571.116516,249.266876 573.743774,260.971313 
	C575.338684,257.283966 576.511292,253.383255 578.581787,250.038437 
	C582.663757,243.444382 589.811218,241.338913 596.632324,239.037567 
	C604.998901,236.214813 611.942444,238.730957 617.696472,245.176605 
	C618.914185,246.540695 620.423706,247.657471 621.557556,249.080429 
	C623.688477,251.754684 625.432556,251.376770 627.557129,248.980957 
	C633.480469,242.301361 640.220398,236.781693 649.288818,234.942627 
	C665.304626,231.694611 674.234375,235.319214 676.985474,252.831680 
	C679.439026,268.450439 676.973083,283.977966 676.272583,299.559723 
	C676.059021,304.310638 678.440796,309.500366 680.718323,313.931854 
	C682.329712,317.067322 685.987671,319.086243 688.299133,321.952667 
	C689.554382,323.509460 689.904907,325.795837 690.663513,327.753113 
	C688.590759,327.861084 686.299377,328.595917 684.484863,327.963226 
	C678.243713,325.787079 673.581970,321.621552 670.633789,315.153748 
z"/>
<path fill="#FFFFFF" opacity="1.000000" stroke="none" 
	d="
M716.921875,306.412170 
	C708.630676,299.979950 705.532043,291.440094 705.029419,281.756012 
	C704.558533,272.685638 703.955872,263.595947 704.113220,254.526978 
	C704.251892,246.533249 705.360046,238.556351 706.119080,229.644104 
	C709.178223,230.248642 712.000000,230.806259 714.528259,231.305893 
	C713.037109,251.164825 711.103760,270.111633 715.038879,289.002197 
	C715.524658,291.334290 716.247070,293.717041 717.376465,295.795593 
	C720.283203,301.145050 725.726074,301.474274 730.937195,296.537720 
	C737.578125,290.246704 741.159851,282.045868 743.969910,273.608337 
	C748.269287,260.698730 752.092529,247.630539 756.254333,234.188889 
	C757.389099,234.188889 759.479553,234.188889 762.000000,234.188889 
	C762.000000,240.268845 762.078247,246.226395 761.985596,252.181274 
	C761.691345,271.092224 761.870728,290.032684 760.798950,308.901062 
	C760.153259,320.267914 762.143860,331.246674 762.942932,342.403076 
	C763.496765,350.135925 764.499207,357.978333 763.754089,365.620972 
	C763.065674,372.682465 758.017944,378.032867 753.017029,383.039642 
	C747.444702,388.618469 740.230774,390.310791 733.024109,391.918427 
	C722.849365,394.188202 705.745972,385.002136 701.836853,375.230286 
	C700.781250,372.591492 700.559204,369.619263 699.867554,366.394470 
	C702.881897,366.394470 705.722351,366.394470 708.592041,366.394470 
	C710.120544,378.358490 721.255798,385.497772 733.222473,382.418884 
	C739.963623,380.684418 746.922180,379.427551 751.592407,373.740570 
	C753.308655,371.650635 754.941467,368.586945 754.826050,366.048615 
	C754.200134,352.281921 752.596375,338.554016 752.156189,324.786316 
	C751.807861,313.893951 752.676941,302.964081 752.951782,292.049500 
	C753.042603,288.441528 752.966125,284.829346 752.966125,279.958954 
	C749.508728,284.926331 747.230225,289.329559 743.909485,292.708466 
	C738.820129,297.886810 733.369873,302.904755 727.331360,306.858307 
	C724.985229,308.394409 720.623169,306.851532 716.921875,306.412170 
z"/>
<path fill="#FFFFFF" opacity="1.000000" stroke="none" 
	d="
M56.230476,323.052795 
	C44.392902,316.903900 35.611313,307.731201 29.240595,296.864990 
	C24.267969,288.383453 23.040401,278.119751 26.199806,268.599426 
	C29.656387,258.183594 33.331463,247.414322 39.261101,238.333481 
	C51.718941,219.255219 65.864433,216.302612 86.017212,220.201080 
	C89.925972,220.957230 93.354218,224.083786 97.072502,225.983047 
	C99.137840,227.038010 101.344536,227.816238 103.904617,228.894913 
	C104.091896,260.321045 113.187279,289.873322 129.982193,317.575470 
	C124.955299,318.469788 121.891373,317.571655 119.959846,313.741943 
	C114.340584,302.600433 108.655884,291.491913 102.985840,280.376068 
	C102.558624,279.538544 102.044258,278.745483 100.924736,276.822937 
	C100.040962,279.025818 99.356995,280.283020 99.025444,281.627167 
	C96.097504,293.497040 92.928505,305.197144 85.379120,315.258789 
	C78.217339,324.803833 70.033104,326.635895 60.318913,324.054749 
	C59.092270,323.728790 57.858185,323.430817 56.230476,323.052795 
M84.972389,300.301666 
	C89.974922,289.215637 93.283562,277.686005 93.991951,265.492279 
	C94.373535,258.923859 94.696342,252.351593 94.984146,245.778381 
	C95.084175,243.493759 95.911369,240.578842 94.845680,239.016266 
	C89.294930,230.877380 83.566460,223.327530 71.386345,225.795837 
	C62.467571,227.603210 54.820713,231.356079 49.573055,238.209549 
	C39.018883,251.993317 32.347858,267.446594 33.996254,285.445465 
	C34.539753,291.379944 36.380508,296.741272 40.609413,301.126831 
	C48.118931,308.914581 57.412880,313.502167 67.722679,316.232574 
	C68.582214,316.460175 69.779472,316.320343 70.539146,315.873749 
	C76.656593,312.277771 80.952927,306.926971 84.972389,300.301666 
z"/>
<path fill="#FFFFFF" opacity="1.000000" stroke="none" 
	d="
M762.000000,170.884811 
	C761.666687,141.923340 761.221252,113.451080 761.033813,84.977119 
	C760.871033,60.242004 761.000000,35.504971 761.000000,10.135033 
	C762.116394,9.848486 764.217224,9.309251 767.470703,8.474158 
	C768.005798,16.476967 768.873840,23.908487 768.931519,31.346283 
	C769.115845,55.162231 769.000000,78.980499 769.000000,102.797874 
	C769.000000,104.448105 769.000000,106.098328 769.000000,108.490219 
	C770.926575,107.797287 772.785706,107.689911 773.720398,106.705101 
	C782.575806,97.375122 791.298889,87.918655 799.981750,78.426926 
	C800.923340,77.397606 801.683289,75.987091 801.991882,74.631447 
	C803.231750,69.185608 806.525024,67.732079 811.932617,69.493103 
	C812.526001,75.634102 809.166626,80.599884 805.472961,84.810768 
	C797.810303,93.546440 789.472351,101.689636 781.415649,110.079887 
	C780.192017,111.354172 778.987915,112.647186 777.458801,114.266144 
	C791.964905,116.543739 800.149780,126.614243 807.856750,136.832397 
	C813.547180,144.377060 818.258423,152.680923 823.103394,160.826462 
	C824.165344,162.611877 823.944336,165.160416 824.295227,167.245255 
	C820.075745,169.377884 817.984253,167.112991 816.032715,164.383728 
	C807.760803,152.815216 799.564026,141.191223 791.147949,129.728378 
	C787.277283,124.456535 777.713013,120.803352 770.040039,121.280945 
	C770.040039,139.346146 770.040039,157.438568 770.040039,175.763428 
	C767.290710,175.763428 764.886963,175.763428 762.000000,175.763428 
	C762.000000,174.269089 762.000000,172.821182 762.000000,170.884811 
z"/>
<path fill="#FFFFFF" opacity="1.000000" stroke="none" 
	d="
M227.083557,313.551941 
	C219.209610,307.331024 216.272980,299.572998 216.924484,289.995117 
	C217.597488,280.101196 218.346786,270.123840 217.732742,260.265839 
	C217.390549,254.772293 214.646423,249.307785 212.291931,244.146225 
	C211.713684,242.878616 208.296936,242.068817 206.400543,242.376450 
	C194.813690,244.255859 187.781311,252.329422 181.937668,261.564484 
	C171.752777,277.660339 166.872406,295.873108 162.270538,314.042877 
	C161.041748,318.894623 160.889755,322.737793 154.140854,321.843353 
	C153.116180,315.702026 151.612137,309.402496 151.090469,303.022644 
	C149.818024,287.461578 148.486069,271.871948 148.224792,256.276306 
	C148.100754,248.873047 148.814270,241.040848 153.750076,234.576859 
	C155.692673,232.032822 158.145386,230.713638 160.482330,233.119598 
	C161.470993,234.137466 160.881012,237.069305 160.450806,239.007385 
	C159.485977,243.353973 157.540314,247.566483 157.149033,251.936981 
	C156.571838,258.383881 156.863724,264.924652 157.047394,271.418030 
	C157.172028,275.823914 157.745712,280.217102 159.017365,285.050232 
	C159.679214,283.871979 160.634140,282.768829 160.958206,281.504028 
	C164.786499,266.562958 174.721344,255.893478 185.782059,246.067871 
	C188.905136,243.293518 192.457779,240.987732 195.898468,238.589066 
	C202.795624,233.780807 210.480347,235.041397 217.430222,237.422974 
	C224.121262,239.715851 224.979507,246.472763 224.993805,252.870819 
	C225.016891,263.201843 225.019501,273.533020 224.993942,283.864044 
	C224.972748,292.435760 225.807587,300.678345 231.750656,307.639191 
	C232.927109,309.017090 232.820816,311.490173 233.403656,313.853943 
	C230.922150,313.853943 229.135544,313.853943 227.083557,313.551941 
z"/>
<path fill="#FFFFFF" opacity="1.000000" stroke="none" 
	d="
M882.848022,171.051376 
	C863.539062,174.444183 844.043640,170.200470 839.882263,146.040924 
	C837.546143,132.478424 837.943970,119.371925 844.065063,106.916534 
	C850.043091,94.752266 860.221069,86.914948 872.077820,80.901573 
	C874.043823,79.904434 875.434204,77.772171 876.788635,75.608963 
	C890.169678,74.547501 900.311584,80.856262 906.770996,92.652023 
	C911.738892,101.724152 915.363708,111.822441 914.752441,122.140488 
	C913.750549,139.054077 907.770203,154.391342 894.481812,165.764893 
	C891.463806,168.348007 887.051331,169.301819 882.848022,171.051376 
M858.075012,160.594238 
	C870.555298,169.434265 889.778564,165.183014 896.333862,151.146698 
	C899.230042,144.945175 902.102722,138.676498 904.251953,132.194885 
	C907.822205,121.427551 908.411560,110.440147 901.888916,100.552475 
	C898.978882,96.141235 894.879822,90.307152 890.508728,89.496742 
	C879.152100,87.391190 868.322998,90.839439 859.552856,98.986534 
	C852.199829,105.817276 849.191406,114.510300 847.787476,124.336380 
	C845.854797,137.862183 848.940430,149.607330 858.075012,160.594238 
z"/>
<path fill="#FFFFFF" opacity="1.000000" stroke="none" 
	d="
M647.271667,95.690224 
	C649.997192,104.762123 654.021912,113.437210 654.501953,122.304199 
	C654.887695,129.429657 651.474182,136.971359 648.858521,143.997803 
	C645.224609,153.759491 639.688110,162.456329 630.411499,167.932327 
	C627.592346,169.596466 624.287292,170.916763 621.066833,171.336990 
	C608.719360,172.948135 596.527344,173.030869 586.841370,163.291931 
	C580.972229,157.390701 578.807190,149.539322 578.233704,141.768005 
	C577.432983,130.918335 577.117859,119.934418 582.020142,109.504379 
	C586.878662,99.167419 594.421143,91.442001 603.620667,85.119904 
	C606.381531,83.222603 609.578796,81.969589 612.404358,80.154007 
	C614.136536,79.041000 615.542297,77.419975 618.097473,75.127197 
	C631.072266,74.244820 642.172607,83.970528 647.271667,95.690224 
M638.589294,96.058441 
	C635.560608,93.705704 632.821106,90.099190 629.430176,89.317009 
	C625.173096,88.335030 620.243958,89.078178 615.847717,90.110786 
	C602.516724,93.242035 593.098999,101.077995 589.025208,114.502960 
	C586.462891,122.947083 584.931763,131.695496 587.179810,140.305756 
	C588.770874,146.399673 590.620911,153.383270 594.742859,157.678528 
	C606.822144,170.265701 626.158081,166.572342 634.010254,153.395920 
	C637.648499,147.290665 640.512207,140.617599 642.931091,133.914719 
	C647.594849,120.991020 647.256775,108.332840 638.589294,96.058441 
z"/>
<path fill="#FFFFFF" opacity="1.000000" stroke="none" 
	d="
M688.940857,116.443802 
	C683.101929,111.527420 679.557495,105.468285 678.125122,98.562912 
	C676.385864,90.178055 683.763123,80.021698 692.728271,77.029007 
	C703.705750,73.364601 714.402344,74.007828 724.524658,79.958115 
	C725.524902,80.546135 726.744080,81.548279 726.940430,82.540527 
	C727.268066,84.195839 727.388123,86.357979 726.551697,87.608528 
	C726.024475,88.396736 723.309204,88.504639 722.070190,87.901382 
	C715.886353,84.890388 709.718567,82.954704 702.590271,82.747414 
	C694.686890,82.517586 687.624573,89.347450 686.544983,96.211632 
	C685.710205,101.519577 689.610901,105.537453 693.845520,107.831085 
	C700.986572,111.699036 708.351013,115.749916 716.128845,117.691238 
	C725.201721,119.955757 730.040894,125.578346 732.981201,133.403854 
	C737.072388,144.292343 736.807800,155.467163 728.945251,161.294724 
	C724.150879,164.848236 718.366455,167.183914 712.811829,169.565201 
	C705.062256,172.887466 697.008728,172.890305 689.132996,169.940552 
	C681.863159,167.217697 676.151672,160.341461 676.259155,150.962692 
	C679.178101,152.646835 681.727661,153.708359 683.788818,155.374176 
	C696.366394,165.539215 710.267029,165.652985 721.678955,155.856812 
	C730.766357,148.055984 727.796692,133.090256 717.881592,127.083290 
	C709.743774,122.153091 700.977844,118.487801 691.225952,117.940842 
	C690.525330,117.901550 689.864075,117.160828 688.940857,116.443802 
z"/>
<path fill="#FFFFFF" opacity="1.000000" stroke="none" 
	d="
M263.243652,307.741974 
	C255.286438,298.189667 247.197586,288.588470 248.217560,275.771332 
	C249.550095,259.026520 253.642685,242.763535 266.250458,230.418747 
	C272.378418,224.418610 280.095184,220.753113 288.952362,221.082779 
	C295.444275,221.324402 301.953644,222.043686 308.370544,223.076187 
	C314.212463,224.016159 314.162170,224.328659 313.762909,230.840027 
	C308.087738,230.527954 302.145660,231.160065 296.767242,229.706482 
	C285.458496,226.650085 270.708588,233.207626 265.199921,244.292267 
	C260.538696,253.671631 256.820831,263.431122 257.193817,273.861023 
	C257.619171,285.754395 261.627014,296.947174 270.842773,304.936859 
	C274.572998,308.170807 280.233917,309.445465 285.230408,310.849548 
	C288.164886,311.674133 291.561371,310.674316 294.678497,311.065491 
	C301.949951,311.978027 307.544830,308.678711 312.969910,304.564240 
	C314.565735,303.353912 316.437317,302.507141 318.276031,301.439453 
	C321.272125,309.106415 315.343170,316.229919 305.842651,318.508636 
	C293.003540,321.588074 280.339233,320.844208 268.999878,312.959991 
	C266.987274,311.560608 265.320862,309.663422 263.243652,307.741974 
z"/>
<path fill="#FFFFFF" opacity="1.000000" stroke="none" 
	d="
M344.001343,283.730499 
	C344.335052,286.790924 344.910980,289.370331 344.954224,291.958618 
	C345.082245,299.616058 345.215240,307.287689 344.835876,314.928436 
	C344.750000,316.657440 342.597168,318.283783 341.395782,319.957397 
	C339.933685,318.503815 337.407501,317.193268 337.189636,315.572418 
	C336.122437,307.632751 335.534668,299.618988 335.027863,291.615601 
	C333.936523,274.381104 333.038269,257.134430 331.973175,239.898178 
	C331.660095,234.832016 331.051849,229.784119 330.542664,224.340714 
	C333.842773,224.340714 336.584167,224.340714 339.688904,224.340714 
	C339.688904,230.485886 339.688904,236.908279 339.688904,243.330673 
	C340.052338,243.559311 340.415802,243.787949 340.779236,244.016586 
	C342.134003,242.537247 343.821716,241.247772 344.790771,239.548447 
	C352.408325,226.190201 360.804779,225.371902 372.576447,226.143219 
	C374.538452,226.271790 376.382904,228.194000 378.537201,229.434555 
	C375.047852,234.854446 369.346161,236.094009 365.048065,235.642532 
	C355.909149,234.682632 353.485229,240.859634 349.771423,246.568314 
	C343.792786,255.758377 343.343689,265.857391 343.979156,276.261261 
	C344.121033,278.583771 344.000092,280.922363 344.001343,283.730499 
z"/>
<path fill="#FFFFFF" opacity="1.000000" stroke="none" 
	d="
M548.000000,142.923828 
	C548.992371,151.288574 549.967346,159.190018 550.984680,167.086044 
	C551.465332,170.817169 548.698242,172.290314 542.076111,171.601929 
	C541.053406,159.264450 539.953674,146.879379 539.021851,134.481705 
	C538.245667,124.154907 537.448242,113.820152 537.123230,103.474373 
	C537.015259,100.038261 537.960510,96.409264 539.205322,93.168457 
	C539.709351,91.856300 542.354858,90.543884 543.930176,90.650070 
	C546.597046,90.829811 547.694397,92.956863 546.735046,95.686699 
	C543.269775,105.548096 546.254517,115.424873 546.696289,125.287025 
	C546.953003,131.018768 547.553955,136.735077 548.000000,142.923828 
z"/>
<path fill="#FFFFFF" opacity="1.000000" stroke="none" 
	d="
M397.997681,249.090759 
	C397.670776,254.603592 396.933777,259.688477 397.121796,264.738892 
	C397.376740,271.586395 398.318390,278.409698 399.004852,285.239441 
	C400.209747,297.228210 401.444489,309.213959 402.741669,321.935669 
	C400.310760,322.375763 397.538452,322.877686 394.480316,323.431366 
	C393.614349,316.720795 392.556244,310.486755 392.048981,304.208191 
	C390.724823,287.818817 389.432281,271.420288 388.620941,255.001022 
	C388.435364,251.244690 389.661041,247.119461 391.281189,243.651794 
	C393.141449,239.670227 396.225189,241.951996 399.044403,243.639725 
	C398.708466,245.250092 398.354095,246.948776 397.997681,249.090759 
z"/>
<path fill="#FFFFFF" opacity="1.000000" stroke="none" 
	d="
M860.998596,317.187317 
	C860.332336,312.562775 859.413635,308.420135 859.053650,304.229492 
	C858.224731,294.580322 857.604675,284.911652 857.020447,275.243591 
	C856.582886,268.002319 856.212158,260.752106 856.065491,253.500732 
	C856.013855,250.948929 856.392151,248.281982 857.143616,245.843094 
	C858.594666,241.134186 860.948425,240.706787 866.118164,243.963181 
	C862.244019,255.504456 864.637878,267.135742 865.918396,278.781952 
	C866.438232,283.510010 866.532043,288.284210 867.025574,293.015961 
	C867.920227,301.593628 869.108582,310.143860 869.806946,318.735413 
	C869.914490,320.058411 868.359192,322.158447 867.042603,322.785339 
	C865.552368,323.494934 863.464355,322.949005 860.999878,322.949005 
	C860.999878,321.170074 860.999878,319.408752 860.998596,317.187317 
z"/>
<path fill="#FFFFFF" opacity="1.000000" stroke="none" 
	d="
M401.887024,221.393570 
	C402.049805,223.630035 402.677032,226.631088 401.722229,227.270798 
	C399.984344,228.435150 396.999359,229.051773 395.087799,228.362701 
	C391.405090,227.035187 386.940399,225.192947 387.234863,220.391907 
	C387.386810,217.913910 389.727142,215.353119 391.625763,213.347672 
	C392.116699,212.829071 395.014618,213.864944 396.200500,214.888992 
	C398.261841,216.669037 399.851013,218.995880 401.887024,221.393570 
z"/>
<path fill="#FFFFFF" opacity="1.000000" stroke="none" 
	d="
M855.224792,217.396393 
	C858.386230,211.982727 860.055420,211.670761 864.198853,215.757812 
	C866.148254,217.680695 868.120972,219.736450 869.450134,222.089554 
	C870.896912,224.651077 869.971741,227.057709 867.162537,228.356720 
	C862.276367,230.616074 859.432678,226.745087 856.066284,224.530838 
	C853.252991,222.680405 853.690674,220.259094 855.224792,217.396393 
z"/>
<path fill="#FFFFFF" opacity="1.000000" stroke="none" 
	d="
M545.268860,64.631027 
	C546.989563,66.547783 548.961243,67.932251 549.811279,69.821396 
	C550.530640,71.420219 550.710327,74.607010 549.781982,75.308434 
	C548.102234,76.577614 545.225342,77.307198 543.203003,76.812332 
	C540.706055,76.201324 538.121765,74.511971 536.385132,72.565849 
	C533.794006,69.662079 534.998047,66.631332 537.504395,63.959724 
	C540.239319,61.044506 542.664490,61.238167 545.268860,64.631027 
z"/>
<path fill="#FFFFFF" opacity="1.000000" stroke="none" 
	d="
M512.014282,301.244934 
	C515.004150,295.788116 519.671082,298.814819 523.805420,297.950104 
	C523.805420,301.452271 523.805420,304.522400 523.805420,307.796509 
	C519.541504,307.796509 515.456055,307.796509 510.701172,307.796509 
	C511.166718,305.597504 511.582153,303.635071 512.014282,301.244934 
z"/>
<path fill="#FFFFFF" opacity="1.000000" stroke="none" 
	d="
M816.000000,303.953369 
	C816.086975,306.485718 816.326172,308.436066 813.068420,308.065247 
	C810.288208,307.748779 807.443420,307.999786 804.665283,307.999786 
	C802.679810,297.943420 804.715820,297.254608 816.000000,298.240997 
	C816.000000,299.948578 816.000000,301.714783 816.000000,303.953369 
z"/>
</svg>